<svg xmlns="http://www.w3.org/2000/svg" viewBox="0 0 980 284.91" height="50" width="100">
   <g id="Layer_2" data-name="Layer 2">
    <g id="Layer_1-2" data-name="Layer 1">
      <path d="M980,232.15c-.47,3.57-.94,7.13-1.44,11h-94.2c-1.48-23.27-14.4-38-34.69-46.62-11.35-4.8-23.92-5.71-34.92.4-10.33,5.73-19.38,13.75-29.36,21-10.68-14.17-25.26-25.18-45.12-24.46-19.2.69-34.72,9.65-45.31,27.11-2-2.28-3.51-3.89-4.83-5.67-12.62-17-29.86-24.16-50.29-20.64-20.73,3.56-34.24,16.76-40.67,36.91-1.26,3.93-1.21,9.42-3.87,11.43s-8,.78-12.12.78q-107.49,0-215,0h-6.6c-7.39-31.3-24.55-52.33-58.93-49.66-25.36,2-42,22-45.34,49.26h-89V183.47h810.1c.52,3.93,1,7.81,1.56,11.68Z"></path>
      <path d="M0,164.15c.65-6.92,1.34-13.83,1.92-20.76.39-4.69,2-8.23,7-9.72,4.32-1.29,4.49-5.34,5-9,1.71-11.85,3.36-23.7,5.11-35.55.42-2.79,1.42-5.53,1.56-8.32.08-1.81-.35-4.31-1.55-5.39-3.59-3.24-3.59-7-1.47-10.38A169.09,169.09,0,0,1,29.16,49.52c.65-.82,2.38-1.07,3.62-1.07q60.47-.08,120.92,0a14.56,14.56,0,0,1,2.18.37V256.53c-7.27,1.37-8.41.69-7.82-6.75,2.41-30.49-20.16-50.46-40.26-55.13-29.06-6.75-59.27,14.63-61.86,44.18-.52,5.94-1,11.88-1.56,18.31-13.37,0-26.48.07-39.59-.14-1,0-2.47-1.91-2.7-3.13C1.17,249,.66,244.07,0,239.15ZM88.07,80.67c-18-.43-34.28-.87-50.57-1.08a4.58,4.58,0,0,0-3.35,2.7c-3.87,13.91-7.86,27.79-11,41.86-1.53,6.73-.49,7.88,6.17,6.83,18.86-3,37.62-6.64,56.38-10.24,1-.19,2.3-2.27,2.31-3.49C88.14,105.28,88.07,93.3,88.07,80.67Z"></path>
      <path d="M980,156.15c-.35,4.79-.71,9.57-1.09,14.75H952.38V.13h26.4c.39,1.94.81,4,1.22,6Z"></path>
      <path d="M232.53,171V.13H261.3V171Z"></path>
      <path d="M269.7.06h26.79V170.92H269.7Z"></path>
      <path d="M507.62.05H534.4V170.92H507.62Z"></path>
      <path d="M780.67.06h26.8V170.92h-26.8Z"></path>
      <path d="M569.15,170.64H542.68V.19h26.47Z"></path>
      <path d="M338.1,0h26.46V170.92H338.1Z"></path>
      <path d="M466,171.06h-26.6V.06H466Z"></path>
      <path d="M602.68,171.07H576V.05h26.64Z"></path>
      <path d="M644.26,0h26.57V170.9H644.26Z"></path>
      <path d="M712.4,0h26.51V170.92H712.4Z"></path>
      <path d="M917.28,0h26.41V170.91H917.28Z"></path>
      <path d="M848.9,170.85V.17h26.72V170.85Z"></path>
      <path d="M500.8,170.6H474.41V0H500.8Z"></path>
      <path d="M303.36,0h26.26V170.59H303.36Z"></path>
      <path d="M406.24,0h26.15V170.57H406.24Z"></path>
      <path d="M397.69,170.7H371.76V.16h25.93Z"></path>
      <path d="M772.2,171.09H747.54V.14H772.2Z"></path>
      <path d="M815.78,0h24.83V170.82H815.78Z"></path>
      <path d="M611.11.07c7.18,0,13.83,0,20.48,0,3.31,0,4.62,1.6,4.63,5q.16,81.2.46,162.38a23.65,23.65,0,0,1-.41,2.91l-25.16,1.11Z"></path>
      <path d="M679.31.05H704V170.92H679.31Z"></path>
      <path d="M884.18,0h24.45V170.92H884.18Z"></path>
      <circle cx="96.02" cy="245.22" r="16.01"></circle>
      <path d="M96,205.52a39.7,39.7,0,1,0,39.7,39.7A39.69,39.69,0,0,0,96,205.52Zm0,66.69a27,27,0,1,1,27-27A27,27,0,0,1,96,272.21Z"></path>
      <circle cx="309.4" cy="245.22" r="16.01"></circle>
      <path d="M309.4,205.52a39.7,39.7,0,1,0,39.69,39.7A39.69,39.69,0,0,0,309.4,205.52Zm0,66.69a27,27,0,1,1,27-27A27,27,0,0,1,309.4,272.21Z"></path>
      <circle cx="647.95" cy="245.22" r="16.01"></circle>
      <path d="M648,205.52a39.7,39.7,0,1,0,39.7,39.7A39.69,39.69,0,0,0,648,205.52Zm0,66.69a27,27,0,1,1,27-27A27,27,0,0,1,648,272.21Z"></path>
      <circle cx="740.98" cy="245.22" r="16.01"></circle>
      <path d="M741,205.52a39.7,39.7,0,1,0,39.69,39.7A39.69,39.69,0,0,0,741,205.52Zm0,66.69a27,27,0,1,1,27-27A27,27,0,0,1,741,272.21Z"></path>
      <circle cx="833.77" cy="245.22" r="16.01"></circle>
      <path d="M833.77,205.52a39.7,39.7,0,1,0,39.69,39.7A39.69,39.69,0,0,0,833.77,205.52Zm0,66.69a27,27,0,1,1,27-27A27,27,0,0,1,833.77,272.21Z"></path>
    </g>
  </g>
</svg>
