<?xml version="1.0" encoding="UTF-8"?>
<svg xmlns="http://www.w3.org/2000/svg" viewBox="0 0 291.05 78.02">
  <defs>
    <style>.cls-1{fill:#5a5b5c;}</style>
  </defs>
  <title>A member of Ghassan Aboud Group</title>
  <g id="Layer_2" data-name="Layer 2">
    <g id="Layer_1-2" data-name="Layer 1">
      <path class="cls-1" d="M30.72,29.47a2,2,0,0,1,2.79,0l1.05,1.05a.57.57,0,0,0,.8,0,.55.55,0,0,0,0-.8l-1-1.06a3.11,3.11,0,0,0-4.39,0L14.87,43.71a3.13,3.13,0,0,0,0,4.39l15.05,15a3.13,3.13,0,0,0,4.39,0l15-15a3.13,3.13,0,0,0,0-4.39l-6-6-9.79,9.79a.57.57,0,0,0,0,.8.58.58,0,0,0,.81,0l9-9,5.23,5.23a2,2,0,0,1,0,2.79l-15,15a2,2,0,0,1-2.79,0l-15-15a2,2,0,0,1,0-2.79Z"></path>
      <path class="cls-1" d="M43.32,31.22l-13,13a.55.55,0,0,0,0,.8.57.57,0,0,0,.8,0L43.32,32.82,54.13,43.63a3.23,3.23,0,0,1,0,4.55L34.39,67.91a3.21,3.21,0,0,1-4.55,0L10.1,48.18a3.23,3.23,0,0,1,0-4.55L29.84,23.89a3.23,3.23,0,0,1,4.55,0l3.4,3.4a.55.55,0,0,0,.8,0,.57.57,0,0,0,0-.8l-3.4-3.4a4.36,4.36,0,0,0-6.15,0L9.3,42.83A4.36,4.36,0,0,0,9.3,49L29,68.72a4.36,4.36,0,0,0,6.15,0L54.93,49a4.36,4.36,0,0,0,0-6.15Z"></path>
      <path class="cls-1" d="M32.11,14.92a5.72,5.72,0,0,1,4,1.67L61.43,41.86a5.75,5.75,0,0,1,0,8.09L36.16,75.22a5.75,5.75,0,0,1-8.1,0L2.8,50a5.73,5.73,0,0,1,0-8.09L28.06,16.59a5.75,5.75,0,0,1,4.05-1.67m0-1.13a6.8,6.8,0,0,0-4.84,2L2,41.06a6.87,6.87,0,0,0,0,9.69L27.27,76A6.87,6.87,0,0,0,37,76L62.22,50.75a6.84,6.84,0,0,0,0-9.69L37,15.79a6.81,6.81,0,0,0-4.85-2Z"></path>
      <path class="cls-1" d="M79.7,37.53H85V38a9,9,0,0,1-.34,2.55,5.38,5.38,0,0,1-1.12,1.92,5.79,5.79,0,0,1-4.53,2,6.23,6.23,0,0,1-4.6-1.94A6.68,6.68,0,0,1,82,31.76a8,8,0,0,1,2.44,2L83,35.06A4.67,4.67,0,0,0,79.2,33a4.58,4.58,0,0,0-3.4,1.4,4.68,4.68,0,0,0-1.38,3.45,4.81,4.81,0,0,0,4.64,4.8,3.89,3.89,0,0,0,2.56-1,3.42,3.42,0,0,0,1.27-2.32H79.7Z"></path>
      <polygon class="cls-1" points="89.34 36.4 94.86 36.4 94.86 31.39 96.79 31.39 96.79 44.19 94.86 44.19 94.86 38.21 89.34 38.21 89.34 44.19 87.41 44.19 87.41 31.39 89.34 31.39 89.34 36.4"></polygon>
      <path class="cls-1" d="M107.37,41.08H101.9l-1.43,3.11H98.39l6.33-13.6,6.11,13.6h-2.12Zm-.79-1.81-1.89-4.35-2,4.35Z"></path>
      <path class="cls-1" d="M119.66,33.29l-1.57.93a2.63,2.63,0,0,0-.83-1,2.21,2.21,0,0,0-2.41.19,1.42,1.42,0,0,0-.53,1.12c0,.63.47,1.13,1.39,1.51l1.28.53a5.48,5.48,0,0,1,2.28,1.53,3.49,3.49,0,0,1,.72,2.23,3.9,3.9,0,0,1-1.18,2.92,4.05,4.05,0,0,1-2.94,1.16,3.93,3.93,0,0,1-2.75-1,4.54,4.54,0,0,1-1.33-2.78l1.95-.43a3.37,3.37,0,0,0,.47,1.56,2,2,0,0,0,1.74.83,2,2,0,0,0,1.5-.61,2.1,2.1,0,0,0,.59-1.53,2.07,2.07,0,0,0-.1-.68,1.78,1.78,0,0,0-.32-.57,2.52,2.52,0,0,0-.57-.49,4.91,4.91,0,0,0-.83-.44L115,37.78c-1.76-.74-2.63-1.82-2.63-3.25a3.1,3.1,0,0,1,1.1-2.41,4,4,0,0,1,2.74-1,3.83,3.83,0,0,1,3.46,2.14"></path>
      <path class="cls-1" d="M129.55,33.29l-1.57.93a2.63,2.63,0,0,0-.83-1,2.2,2.2,0,0,0-2.4.19,1.39,1.39,0,0,0-.53,1.12c0,.63.46,1.13,1.39,1.51l1.27.53a5.48,5.48,0,0,1,2.28,1.53,3.49,3.49,0,0,1,.72,2.23,3.93,3.93,0,0,1-1.17,2.92,4.07,4.07,0,0,1-3,1.16,3.93,3.93,0,0,1-2.75-1,4.6,4.6,0,0,1-1.33-2.78l1.95-.43a3.37,3.37,0,0,0,.47,1.56,2,2,0,0,0,1.74.83,2,2,0,0,0,1.5-.61,2.3,2.3,0,0,0,.49-2.21,1.78,1.78,0,0,0-.32-.57,2.52,2.52,0,0,0-.57-.49,4.91,4.91,0,0,0-.83-.44l-1.23-.51c-1.75-.74-2.63-1.82-2.63-3.25a3.1,3.1,0,0,1,1.1-2.41,4,4,0,0,1,2.75-1,3.83,3.83,0,0,1,3.45,2.14"></path>
      <path class="cls-1" d="M139.59,41.08h-5.47l-1.43,3.11h-2.08l6.33-13.6,6.11,13.6h-2.12Zm-.78-1.81-1.9-4.35-2,4.35Z"></path>
      <polygon class="cls-1" points="144.65 44.19 144.65 30.52 153.97 40.28 153.97 31.39 155.91 31.39 155.91 44.97 146.58 35.23 146.58 44.19 144.65 44.19"></polygon>
      <path class="cls-1" d="M171.72,41.08h-5.48l-1.42,3.11h-2.08l6.33-13.6,6.11,13.6h-2.12Zm-.79-1.81L169,34.92l-2,4.35Z"></path>
      <path class="cls-1" d="M176.77,44.19V31.39h1.93a8.47,8.47,0,0,1,2,.2,3.05,3.05,0,0,1,1.3.68,3.46,3.46,0,0,1,.86,1.21,3.77,3.77,0,0,1,.32,1.49,3,3,0,0,1-1.05,2.33,3.12,3.12,0,0,1,1.61,1.22,3.5,3.5,0,0,1,.59,2,3.38,3.38,0,0,1-1.06,2.53,3.44,3.44,0,0,1-1.43.89,8.37,8.37,0,0,1-2.18.24Zm1.93-7.3h.61a2.23,2.23,0,0,0,1.58-.48,1.85,1.85,0,0,0,.5-1.4,1.77,1.77,0,0,0-.51-1.37,2.17,2.17,0,0,0-1.5-.47h-.68Zm0,5.48h1.2a3,3,0,0,0,1.92-.51,1.85,1.85,0,0,0,0-2.8,3.2,3.2,0,0,0-2.16-.56h-1Z"></path>
      <path class="cls-1" d="M186.07,37.73a6.28,6.28,0,0,1,2-4.64,6.51,6.51,0,0,1,4.74-1.93,6.67,6.67,0,0,1,6.65,6.65,6.3,6.3,0,0,1-2,4.68,6.75,6.75,0,0,1-9.23.21,6.27,6.27,0,0,1-2.17-5m2,0a4.73,4.73,0,0,0,8.09,3.46,5,5,0,0,0,0-6.85,4.78,4.78,0,0,0-6.74,0A4.64,4.64,0,0,0,188,37.75"></path>
      <path class="cls-1" d="M203.8,31.39v7.7a4.21,4.21,0,0,0,.54,2.41,2.87,2.87,0,0,0,4.53,0,4.14,4.14,0,0,0,.54-2.41v-7.7h1.93v8.24A4.6,4.6,0,0,1,210.08,43a4.87,4.87,0,0,1-7,0,4.6,4.6,0,0,1-1.26-3.33V31.39Z"></path>
      <path class="cls-1" d="M214.4,44.19V31.39h2.69a9.57,9.57,0,0,1,3,.39A5.73,5.73,0,0,1,222.32,33a6.14,6.14,0,0,1,2,4.75,6.25,6.25,0,0,1-4.24,6,9.73,9.73,0,0,1-3,.36Zm1.93-1.82h.87a7.41,7.41,0,0,0,2.17-.27,4.69,4.69,0,0,0,1.57-7.72,5.32,5.32,0,0,0-3.74-1.17h-.87Z"></path>
      <path class="cls-1" d="M238.54,37.53h5.28V38a8.6,8.6,0,0,1-.34,2.55,5.23,5.23,0,0,1-1.12,1.92,5.76,5.76,0,0,1-4.53,2,6.21,6.21,0,0,1-4.59-1.94,6.68,6.68,0,0,1,7.57-10.73,8,8,0,0,1,2.44,2l-1.37,1.32A4.67,4.67,0,0,0,238,33a4.58,4.58,0,0,0-3.4,1.4,4.68,4.68,0,0,0-1.38,3.45,4.79,4.79,0,0,0,4.64,4.8,3.91,3.91,0,0,0,2.56-1,3.42,3.42,0,0,0,1.27-2.32h-3.19Z"></path>
      <path class="cls-1" d="M250.59,38.74l3.95,5.45h-2.36L248.53,39h-.35v5.24h-1.93V31.4h2.26a5.61,5.61,0,0,1,3.66,1,3.51,3.51,0,0,1,1.25,2.8,3.67,3.67,0,0,1-.78,2.34,3.54,3.54,0,0,1-2,1.25m-2.41-1.47h.61c1.83,0,2.75-.7,2.75-2.1s-.89-2-2.67-2h-.69Z"></path>
      <path class="cls-1" d="M255.54,37.73a6.28,6.28,0,0,1,2-4.64,6.51,6.51,0,0,1,4.74-1.93,6.67,6.67,0,0,1,6.65,6.65,6.3,6.3,0,0,1-2,4.68,6.75,6.75,0,0,1-9.23.21,6.27,6.27,0,0,1-2.17-5m2,0a4.73,4.73,0,0,0,8.09,3.46,5,5,0,0,0,0-6.85,4.78,4.78,0,0,0-6.74,0,4.6,4.6,0,0,0-1.37,3.39"></path>
      <path class="cls-1" d="M273.27,31.39v7.7a4.21,4.21,0,0,0,.54,2.41,2.87,2.87,0,0,0,4.53,0,4.14,4.14,0,0,0,.54-2.41v-7.7h1.93v8.24A4.6,4.6,0,0,1,279.55,43a4.69,4.69,0,0,1-3.48,1.46,4.64,4.64,0,0,1-4.73-4.79V31.39Z"></path>
      <path class="cls-1" d="M285.8,39v5.2h-1.93V31.4h2.19a9.91,9.91,0,0,1,2.43.22,3.31,3.31,0,0,1,1.46.84,3.67,3.67,0,0,1,1.1,2.72A3.51,3.51,0,0,1,289.87,38a4.66,4.66,0,0,1-3.17,1Zm0-1.79h.72c1.78,0,2.66-.68,2.66-2s-.91-2-2.74-2h-.64Z"></path>
      <path class="cls-1" d="M74.39,61.35V52.27h1.37a6.21,6.21,0,0,1,1.45.14,2.31,2.31,0,0,1,.92.48,2.44,2.44,0,0,1,.61.86A2.66,2.66,0,0,1,79,54.81a2.14,2.14,0,0,1-.75,1.65,2.25,2.25,0,0,1,1.14.87,2.45,2.45,0,0,1,.42,1.42,2.42,2.42,0,0,1-.75,1.8,2.49,2.49,0,0,1-1,.63,6,6,0,0,1-1.54.17Zm1.37-5.18h.43a1.56,1.56,0,0,0,1.12-.34,1.29,1.29,0,0,0,.36-1,1.27,1.27,0,0,0-.37-1,1.51,1.51,0,0,0-1.06-.33h-.48Zm0,3.89h.85A2.11,2.11,0,0,0,78,59.7a1.25,1.25,0,0,0,.46-1,1.31,1.31,0,0,0-.44-1,2.31,2.31,0,0,0-1.53-.39h-.7Z"></path>
      <path class="cls-1" d="M83.49,55.62v3.29c0,1,.37,1.42,1.12,1.42s1.12-.47,1.12-1.42V55.62h1.32v3.32a3.56,3.56,0,0,1-.17,1.19,2,2,0,0,1-.57.8,2.78,2.78,0,0,1-3.4,0,2,2,0,0,1-.58-.8,3.3,3.3,0,0,1-.17-1.19V55.62Z"></path>
      <path class="cls-1" d="M89.43,53.24a.85.85,0,0,1,.86-.85.84.84,0,0,1,.61.25.87.87,0,0,1,0,1.22.87.87,0,0,1-1.22,0,.84.84,0,0,1-.25-.62M91,61.35H89.63V55.62H91Z"></path>
      <rect class="cls-1" x="93.53" y="51.42" width="1.32" height="9.93"></rect>
      <path class="cls-1" d="M101.65,51.42H103v9.93h-1.33v-.6a2.46,2.46,0,0,1-1.77.76,2.53,2.53,0,0,1-1.95-.85,3.23,3.23,0,0,1-.77-2.19,3.09,3.09,0,0,1,.77-2.14,2.46,2.46,0,0,1,3.72,0Zm-3.14,7A2,2,0,0,0,99,59.81a1.43,1.43,0,0,0,1.14.52,1.54,1.54,0,0,0,1.19-.5,2.19,2.19,0,0,0,0-2.66,1.49,1.49,0,0,0-1.17-.51,1.47,1.47,0,0,0-1.15.52,1.9,1.9,0,0,0-.45,1.29"></path>
      <path class="cls-1" d="M105.35,53.24a.83.83,0,0,1,.26-.6.8.8,0,0,1,.6-.25.82.82,0,0,1,.61.25.85.85,0,0,1,0,1.22.79.79,0,0,1-.6.25.81.81,0,0,1-.61-.25.85.85,0,0,1-.26-.62m1.53,8.11h-1.33V55.62h1.33Z"></path>
      <path class="cls-1" d="M109.45,55.62h1.33v.53a2.19,2.19,0,0,1,1.57-.69,2,2,0,0,1,1.56.63,2.6,2.6,0,0,1,.48,1.75v3.51h-1.33v-3.2a2,2,0,0,0-.24-1.16.94.94,0,0,0-.83-.33,1,1,0,0,0-.94.43,3,3,0,0,0-.27,1.5v2.76h-1.33Z"></path>
      <path class="cls-1" d="M122.5,61.21q0,.4,0,.72a3.57,3.57,0,0,1-.07.54,2.53,2.53,0,0,1-.55,1.11,2.68,2.68,0,0,1-2.14.9,2.89,2.89,0,0,1-1.89-.62,2.58,2.58,0,0,1-.88-1.76h1.33a1.58,1.58,0,0,0,.25.65,1.42,1.42,0,0,0,1.2.53c1,0,1.46-.59,1.46-1.77v-.8a2.54,2.54,0,0,1-3.74,0,3.15,3.15,0,0,1-.75-2.15,3.31,3.31,0,0,1,.7-2.13,2.42,2.42,0,0,1,2-.93,2.31,2.31,0,0,1,1.8.81v-.65h1.32Zm-1.27-2.71a1.91,1.91,0,0,0-.45-1.33,1.48,1.48,0,0,0-1.16-.51,1.39,1.39,0,0,0-1.18.56,2.26,2.26,0,0,0,0,2.57,1.42,1.42,0,0,0,1.18.54,1.44,1.44,0,0,0,1.2-.55,2,2,0,0,0,.41-1.28"></path>
      <path class="cls-1" d="M133.91,55.62h1.33v5.73h-1.33v-.6a2.55,2.55,0,0,1-3.72-.09,3.23,3.23,0,0,1-.77-2.19,3.11,3.11,0,0,1,.77-2.15,2.49,2.49,0,0,1,1.93-.86,2.43,2.43,0,0,1,1.79.83Zm-3.14,2.85a2,2,0,0,0,.44,1.34,1.46,1.46,0,0,0,1.14.52,1.54,1.54,0,0,0,1.19-.5,2.15,2.15,0,0,0,0-2.66,1.49,1.49,0,0,0-1.17-.51,1.43,1.43,0,0,0-1.14.52,1.85,1.85,0,0,0-.46,1.29"></path>
      <path class="cls-1" d="M143.76,51.42v4.87a2.46,2.46,0,0,1,3.72,0,3,3,0,0,1,.77,2.14,3.2,3.2,0,0,1-.77,2.19,2.51,2.51,0,0,1-1.95.85,2.46,2.46,0,0,1-1.77-.76v.6h-1.33V51.42Zm3.14,7.11a2,2,0,0,0-.44-1.34,1.44,1.44,0,0,0-1.14-.53,1.53,1.53,0,0,0-1.19.51,2.18,2.18,0,0,0,0,2.65,1.47,1.47,0,0,0,1.17.51,1.45,1.45,0,0,0,1.14-.51,1.85,1.85,0,0,0,.46-1.29"></path>
      <path class="cls-1" d="M155.77,58.8h-4.1a1.71,1.71,0,0,0,.46,1.12,1.4,1.4,0,0,0,1,.41,1.36,1.36,0,0,0,.81-.23,3.28,3.28,0,0,0,.73-.87l1.11.62a4.63,4.63,0,0,1-.54.76,2.67,2.67,0,0,1-.62.51,2.34,2.34,0,0,1-.71.3,3.64,3.64,0,0,1-.83.09,2.69,2.69,0,0,1-2.06-.82,3.06,3.06,0,0,1-.77-2.2,3.19,3.19,0,0,1,.75-2.2,2.86,2.86,0,0,1,4,0,3.19,3.19,0,0,1,.73,2.22Zm-1.36-1.08a1.26,1.26,0,0,0-1.33-1.06,1.33,1.33,0,0,0-.45.07,1.47,1.47,0,0,0-.39.21,1.66,1.66,0,0,0-.3.34,1.35,1.35,0,0,0-.18.44Z"></path>
      <polygon class="cls-1" points="159.59 56.86 159.59 61.35 158.27 61.35 158.27 56.86 157.7 56.86 157.7 55.62 158.27 55.62 158.27 53.52 159.59 53.52 159.59 55.62 160.62 55.62 160.62 56.86 159.59 56.86"></polygon>
      <polygon class="cls-1" points="163.79 56.86 163.79 61.35 162.46 61.35 162.46 56.86 161.9 56.86 161.9 55.62 162.46 55.62 162.46 53.52 163.79 53.52 163.79 55.62 164.82 55.62 164.82 56.86 163.79 56.86"></polygon>
      <path class="cls-1" d="M171.94,58.8h-4.1a1.7,1.7,0,0,0,.45,1.12,1.42,1.42,0,0,0,1,.41,1.39,1.39,0,0,0,.82-.23,3.71,3.71,0,0,0,.73-.87l1.11.62a4.63,4.63,0,0,1-.54.76,2.89,2.89,0,0,1-.62.51,2.34,2.34,0,0,1-.71.3,3.7,3.7,0,0,1-.83.09,2.69,2.69,0,0,1-2.06-.82,3.07,3.07,0,0,1-.78-2.2,3.15,3.15,0,0,1,.76-2.2,2.86,2.86,0,0,1,4,0,3.19,3.19,0,0,1,.73,2.22Zm-1.36-1.08a1.26,1.26,0,0,0-1.33-1.06,1.39,1.39,0,0,0-.46.07,1.28,1.28,0,0,0-.38.21,1.22,1.22,0,0,0-.3.34,1.62,1.62,0,0,0-.19.44Z"></path>
      <path class="cls-1" d="M174.29,55.62h1.32v.51a2.67,2.67,0,0,1,.65-.52,1.45,1.45,0,0,1,.68-.15,2.11,2.11,0,0,1,1.09.35l-.6,1.21a1.27,1.27,0,0,0-.74-.27c-.72,0-1.08.54-1.08,1.63v3h-1.32Z"></path>
      <path class="cls-1" d="M185.68,56.86v4.49h-1.32V56.86h-.47V55.62h.47V53.41a2.42,2.42,0,0,1,.37-1.53,1.87,1.87,0,0,1,1.51-.62,2.5,2.5,0,0,1,.88.21v1.35l-.13-.07a1.61,1.61,0,0,0-.71-.22.48.48,0,0,0-.47.25,2.51,2.51,0,0,0-.13,1v1.88h1.44v1.24Z"></path>
      <path class="cls-1" d="M190.12,55.62v3.29c0,1,.37,1.42,1.12,1.42s1.12-.47,1.12-1.42V55.62h1.32v3.32a3.56,3.56,0,0,1-.17,1.19,2,2,0,0,1-.57.8,2.78,2.78,0,0,1-3.4,0,2.07,2.07,0,0,1-.58-.8,3.3,3.3,0,0,1-.17-1.19V55.62Z"></path>
      <polygon class="cls-1" points="197.62 56.86 197.62 61.35 196.3 61.35 196.3 56.86 195.73 56.86 195.73 55.62 196.3 55.62 196.3 53.52 197.62 53.52 197.62 55.62 198.65 55.62 198.65 56.86 197.62 56.86"></polygon>
      <path class="cls-1" d="M201.78,55.62v3.29c0,1,.37,1.42,1.12,1.42s1.12-.47,1.12-1.42V55.62h1.32v3.32a3.56,3.56,0,0,1-.17,1.19,2,2,0,0,1-.57.8,2.78,2.78,0,0,1-3.4,0,2,2,0,0,1-.58-.8,3.3,3.3,0,0,1-.17-1.19V55.62Z"></path>
      <path class="cls-1" d="M207.92,55.62h1.32v.51a2.67,2.67,0,0,1,.65-.52,1.45,1.45,0,0,1,.68-.15,2.11,2.11,0,0,1,1.09.35l-.6,1.21a1.27,1.27,0,0,0-.74-.27c-.72,0-1.08.54-1.08,1.63v3h-1.32Z"></path>
      <path class="cls-1" d="M218.46,58.8h-4.11a1.76,1.76,0,0,0,.46,1.12,1.55,1.55,0,0,0,1.86.18,3.49,3.49,0,0,0,.72-.87l1.12.62a4.13,4.13,0,0,1-.55.76,2.63,2.63,0,0,1-.61.51,2.29,2.29,0,0,1-.72.3,3.55,3.55,0,0,1-.82.09,2.67,2.67,0,0,1-2.06-.82,3.07,3.07,0,0,1-.78-2.2,3.19,3.19,0,0,1,.75-2.2,2.62,2.62,0,0,1,2-.83,2.55,2.55,0,0,1,2,.81,3.15,3.15,0,0,1,.73,2.22Zm-1.36-1.08a1.27,1.27,0,0,0-1.34-1.06,1.33,1.33,0,0,0-.45.07,1.28,1.28,0,0,0-.38.21,1.22,1.22,0,0,0-.3.34,1.36,1.36,0,0,0-.19.44Z"></path>
      <path class="cls-1" d="M221,60.69a.78.78,0,0,1,.24-.57.8.8,0,0,1,.58-.24.82.82,0,0,1,.58.24.78.78,0,0,1,.24.58.8.8,0,0,1-.24.58.78.78,0,0,1-.58.23.76.76,0,0,1-.58-.23.79.79,0,0,1-.24-.59"></path>
      <path class="cls-1" d="M225.63,60.69a.81.81,0,0,1,1.39-.57.75.75,0,0,1,.24.58.76.76,0,0,1-.24.58.74.74,0,0,1-.57.23.76.76,0,0,1-.58-.23.79.79,0,0,1-.24-.59"></path>
      <path class="cls-1" d="M230.25,60.69a.82.82,0,0,1,1.63,0,.8.8,0,0,1-.24.58.74.74,0,0,1-.57.23.76.76,0,0,1-.58-.23.79.79,0,0,1-.24-.59"></path>
      <polygon class="cls-1" points="240.65 56.86 240.65 61.35 239.32 61.35 239.32 56.86 238.76 56.86 238.76 55.62 239.32 55.62 239.32 53.52 240.65 53.52 240.65 55.62 241.68 55.62 241.68 56.86 240.65 56.86"></polygon>
      <path class="cls-1" d="M243.29,58.44a2.86,2.86,0,0,1,.89-2.11,3,3,0,0,1,2.16-.87,3,3,0,0,1,2.18.88,3,3,0,0,1,.88,2.15,2.91,2.91,0,0,1-.89,2.16,3,3,0,0,1-2.19.86,2.9,2.9,0,0,1-2.16-.88,3,3,0,0,1-.87-2.19m1.35,0a1.93,1.93,0,0,0,.46,1.36,1.63,1.63,0,0,0,1.24.5,1.58,1.58,0,0,0,1.24-.5,1.88,1.88,0,0,0,.47-1.33,1.9,1.9,0,0,0-.47-1.34,1.78,1.78,0,0,0-2.47,0,1.88,1.88,0,0,0-.47,1.31"></path>
      <path class="cls-1" d="M257.24,61.21q0,.4,0,.72a3.57,3.57,0,0,1-.07.54,2.53,2.53,0,0,1-.55,1.11,2.68,2.68,0,0,1-2.14.9,2.84,2.84,0,0,1-1.88-.62,2.51,2.51,0,0,1-.89-1.76H253a1.58,1.58,0,0,0,.25.65,1.42,1.42,0,0,0,1.2.53c1,0,1.46-.59,1.46-1.77v-.8a2.54,2.54,0,0,1-3.74,0,3.15,3.15,0,0,1-.75-2.15,3.31,3.31,0,0,1,.7-2.13,2.42,2.42,0,0,1,2-.93,2.31,2.31,0,0,1,1.8.81v-.65h1.32ZM256,58.5a1.91,1.91,0,0,0-.45-1.33,1.48,1.48,0,0,0-1.16-.51,1.39,1.39,0,0,0-1.18.56,2.26,2.26,0,0,0,0,2.57,1.42,1.42,0,0,0,1.18.54,1.44,1.44,0,0,0,1.2-.55A2,2,0,0,0,256,58.5"></path>
      <path class="cls-1" d="M265,58.8h-4.11a1.76,1.76,0,0,0,.46,1.12,1.55,1.55,0,0,0,1.86.18,3.49,3.49,0,0,0,.72-.87l1.12.62a4.13,4.13,0,0,1-.55.76,2.48,2.48,0,0,1-.62.51,2.14,2.14,0,0,1-.71.3,3.55,3.55,0,0,1-.82.09,2.67,2.67,0,0,1-2.06-.82,3.07,3.07,0,0,1-.78-2.2,3.19,3.19,0,0,1,.75-2.2,2.62,2.62,0,0,1,2-.83,2.56,2.56,0,0,1,2,.81,3.15,3.15,0,0,1,.73,2.22Zm-1.36-1.08a1.26,1.26,0,0,0-1.34-1.06,1.33,1.33,0,0,0-.45.07,1.28,1.28,0,0,0-.38.21,1.22,1.22,0,0,0-.3.34,1.36,1.36,0,0,0-.19.44Z"></path>
      <polygon class="cls-1" points="268.85 56.86 268.85 61.35 267.52 61.35 267.52 56.86 266.96 56.86 266.96 55.62 267.52 55.62 267.52 53.52 268.85 53.52 268.85 55.62 269.88 55.62 269.88 56.86 268.85 56.86"></polygon>
      <path class="cls-1" d="M271.92,51.42h1.32V56.1a2.3,2.3,0,0,1,1.56-.64,2,2,0,0,1,1.55.63,2.58,2.58,0,0,1,.5,1.75v3.51h-1.33V58a1.6,1.6,0,0,0-.24-1,.92.92,0,0,0-.79-.31,1.06,1.06,0,0,0-1,.43,2.88,2.88,0,0,0-.28,1.49v2.77h-1.32Z"></path>
      <path class="cls-1" d="M284.64,58.8h-4.1a1.66,1.66,0,0,0,.46,1.12,1.39,1.39,0,0,0,1,.41,1.36,1.36,0,0,0,.81-.23,3.48,3.48,0,0,0,.73-.87l1.11.62a4.63,4.63,0,0,1-.54.76,2.89,2.89,0,0,1-.62.51,2.34,2.34,0,0,1-.71.3,3.64,3.64,0,0,1-.83.09,2.69,2.69,0,0,1-2.06-.82,3.07,3.07,0,0,1-.78-2.2,3.2,3.2,0,0,1,.76-2.2,2.86,2.86,0,0,1,4,0,3.19,3.19,0,0,1,.73,2.22Zm-1.36-1.08A1.26,1.26,0,0,0,282,56.66a1.28,1.28,0,0,0-.84.28,1.41,1.41,0,0,0-.3.34,1.62,1.62,0,0,0-.19.44Z"></path>
      <path class="cls-1" d="M287,55.62h1.32v.51a2.87,2.87,0,0,1,.65-.52,1.45,1.45,0,0,1,.68-.15,2.15,2.15,0,0,1,1.1.35L290.13,57a1.27,1.27,0,0,0-.74-.27c-.72,0-1.08.54-1.08,1.63v3H287Z"></path>
      <path class="cls-1" d="M113.39,8.82h-4.34l-1.13,2.46h-1.65l5-10.79,4.85,10.79h-1.68Zm-.62-1.44-1.51-3.45-1.57,3.45Z"></path>
      <path class="cls-1" d="M121.28,4.88h1.48v.59a2.83,2.83,0,0,1,.73-.6,1.74,1.74,0,0,1,.81-.17,2,2,0,0,1,1.71,1,2.23,2.23,0,0,1,1.89-1c1.44,0,2.16.88,2.16,2.62v4h-1.48V7.73a2.75,2.75,0,0,0-.23-1.31A.81.81,0,0,0,127.6,6a1,1,0,0,0-.89.46A2.91,2.91,0,0,0,126.43,8v3.3h-1.49V7.75q0-1.71-1-1.71a1,1,0,0,0-.91.46A2.93,2.93,0,0,0,122.76,8v3.3h-1.48Z"></path>
      <path class="cls-1" d="M137.76,8.43h-4.59a2,2,0,0,0,.51,1.26,1.62,1.62,0,0,0,1.17.46,1.47,1.47,0,0,0,.91-.27,3.58,3.58,0,0,0,.81-1l1.25.7a4.8,4.8,0,0,1-.61.84,3.32,3.32,0,0,1-.69.58,2.81,2.81,0,0,1-.8.33,3.8,3.8,0,0,1-.92.11,3,3,0,0,1-2.31-.92,3.49,3.49,0,0,1-.86-2.46,3.55,3.55,0,0,1,.84-2.46,3.2,3.2,0,0,1,4.48,0,3.52,3.52,0,0,1,.82,2.48Zm-1.52-1.21A1.41,1.41,0,0,0,134.75,6a1.44,1.44,0,0,0-.51.08,1.49,1.49,0,0,0-.43.23,1.51,1.51,0,0,0-.33.38,1.81,1.81,0,0,0-.21.49Z"></path>
      <path class="cls-1" d="M139.38,4.88h1.48v.59a2.83,2.83,0,0,1,.73-.6,1.74,1.74,0,0,1,.81-.17,2,2,0,0,1,1.71,1,2.24,2.24,0,0,1,1.89-1c1.44,0,2.16.88,2.16,2.62v4h-1.48V7.73a2.75,2.75,0,0,0-.23-1.31A.81.81,0,0,0,145.7,6a1,1,0,0,0-.89.46A2.91,2.91,0,0,0,144.53,8v3.3H143V7.75q0-1.71-1-1.71a1,1,0,0,0-.91.46A2.93,2.93,0,0,0,140.86,8v3.3h-1.48Z"></path>
      <path class="cls-1" d="M151.51.18V5.62a2.74,2.74,0,0,1,2-.92,2.77,2.77,0,0,1,2.16,1,3.47,3.47,0,0,1,.86,2.39,3.53,3.53,0,0,1-.87,2.45,2.79,2.79,0,0,1-2.18,1,2.76,2.76,0,0,1-2-.86v.67H150V.18Zm3.52,8a2.21,2.21,0,0,0-.5-1.5A1.59,1.59,0,0,0,153.26,6a1.7,1.7,0,0,0-1.33.57,2.1,2.1,0,0,0-.51,1.47,2.16,2.16,0,0,0,.5,1.49,1.68,1.68,0,0,0,1.32.58,1.62,1.62,0,0,0,1.27-.58A2,2,0,0,0,155,8.13Z"></path>
      <path class="cls-1" d="M163.93,8.43h-4.58a2,2,0,0,0,.51,1.26,1.58,1.58,0,0,0,1.16.46,1.52,1.52,0,0,0,.92-.27,3.77,3.77,0,0,0,.8-1l1.25.7a4.33,4.33,0,0,1-.61.84,2.88,2.88,0,0,1-.69.58,2.75,2.75,0,0,1-.79.33,4,4,0,0,1-.93.11,3,3,0,0,1-2.3-.92,3.46,3.46,0,0,1-.87-2.46,3.55,3.55,0,0,1,.84-2.46,3.21,3.21,0,0,1,4.49,0,3.56,3.56,0,0,1,.81,2.48Zm-1.51-1.21A1.42,1.42,0,0,0,160.92,6a1.5,1.5,0,0,0-.93.31,1.78,1.78,0,0,0-.34.38,1.81,1.81,0,0,0-.21.49Z"></path>
      <path class="cls-1" d="M165.55,4.88H167v.57a2.77,2.77,0,0,1,.73-.58,1.61,1.61,0,0,1,.76-.17,2.4,2.4,0,0,1,1.22.38l-.68,1.36a1.42,1.42,0,0,0-.82-.31c-.8,0-1.21.61-1.21,1.83v3.32h-1.48Z"></path>
      <path class="cls-1" d="M174.44,8a3.2,3.2,0,0,1,1-2.36,3.52,3.52,0,0,1,4.86,0,3.29,3.29,0,0,1,1,2.41,3.24,3.24,0,0,1-1,2.41,3.41,3.41,0,0,1-2.45,1,3.23,3.23,0,0,1-2.41-1A3.32,3.32,0,0,1,174.44,8Zm1.51,0a2.17,2.17,0,0,0,.52,1.52,1.79,1.79,0,0,0,1.38.57,1.81,1.81,0,0,0,1.39-.56,2.11,2.11,0,0,0,.52-1.5,2.08,2.08,0,0,0-.52-1.49,2,2,0,0,0-2.76,0A2.06,2.06,0,0,0,176,8.06Z"></path>
      <path class="cls-1" d="M184.37,6.26v5h-1.49v-5h-.52V4.88h.52V2.41A2.67,2.67,0,0,1,183.3.7,2.06,2.06,0,0,1,185,0a3,3,0,0,1,1,.23V1.74l-.15-.08a1.86,1.86,0,0,0-.79-.24.53.53,0,0,0-.53.28,2.79,2.79,0,0,0-.14,1.07V4.88H186V6.26Z"></path>
    </g>
  </g>
</svg>
