<?xml version="1.0" encoding="UTF-8"?>
<svg xmlns="http://www.w3.org/2000/svg" viewBox="0 0 347.93 100.1">
  <title>Trucks</title>
  <g id="Layer_2" data-name="Layer 2">
    <g id="Layer_1-2" data-name="Layer 1">
      <path d="M272.63,93.22c10.82-.15,21.64-.14,32.45.14,2.32.06,4.61,1.5,6.92,2.31l1.38,1.3c.2-3.14.33-6.29.62-9.43.57-6.24,3.33-11.07,9.24-13.74,5.72-2.58,10.88-1.34,16,1.91,2.25,1.43,5.1,1.89,8.5,3.08,0-7.78.22-14.09-.16-20.36-.09-1.45-2.26-2.77-3.47-4.15l-1.39,1V73.61c-3.87-6-1.25-12.7-3-19.87l-34.23-1.86q-1.05-8.72-2.12-17.44l6.23-.85c.05-.44.09-.89.14-1.33-1.76-.69-3.47-1.81-5.28-2-10.53-1.12-21.09-2-31.64-3-4-.39-5.21,1.55-5.19,5.29.09,18.64.12,37.28,0,55.92C267.63,92.22,269,93.26,272.63,93.22Zm44-24.71c7.1-4.61,16.72-4.59,22.67.88C320.44,63.76,310.6,71,308.74,90,306,82.1,309.66,73,316.61,68.51ZM284.47,34.07c4.8.15,9.6,0,15.34,0,.83,6.11,1.59,11.77,2.45,18.16-6.56,0-12.31.12-18.05-.13-.88,0-2.29-1.69-2.43-2.74-.52-3.77-.56-7.6-.87-11.4C280.69,35.34,281.51,34,284.47,34.07Zm-9.4,22.44h27.4v1h-27.4C275.06,57.16,275.07,56.84,275.07,56.51Z"></path>
      <path d="M93,61.05c2.44-7.48,6-10.55,11.79-10.27s8.84,3.59,10.69,11.66h18.16c2.23-8.5,5.57-11.83,11.55-11.71s9.53,3.86,10.93,11.65c8.26.81,9.38-.9,7.69-8.43-1.59-7.06-7-8-12.46-9.65-3.17-1-7.12-1.8-9-4.1-6-7.32-13.34-10.54-22.63-10.05a59.81,59.81,0,0,1-9.46-.3c-6.72-.71-12.2,1.42-15.8,7.14-1.67,2.64-2.55,5.81-3.51,8.83A35.18,35.18,0,0,0,89.49,53C89.16,56.21,87.92,60.05,93,61.05ZM154.85,47l6.44,5.18-1.24,1.6c-3.35-.12-6.25-.86-6.41-5.33Zm-16.74-4.83c-7.08,0-14.29.37-21.39-.39-1.12-.12-1.69-5.39-2.57-8.48C129.55,32.22,133.05,32.78,138.11,42.13Zm-26.59-9.56v9H96.35C99.1,33.85,102.39,31.88,111.52,32.57ZM93.68,44.16c16-.11,32-.86,47.66,3.47L93.68,45.49Z"></path>
      <path d="M179,61.08c.32-.39.6-.6.7-.88,2.58-6.93,5.69-9.57,11.17-9.44,5.31.13,8.08,2.76,10.55,9.51a4.19,4.19,0,0,0,2.92,2.35c5.27.24,10.56.11,15.73.11,1.57-8.09,4.71-11.53,10.52-11.94,6.1-.42,9.19,2.53,12.16,11.67,8.16.71,9.18-1,7.24-9-1.55-6.37-6.3-8-11.36-8.78-5.62-.82-9.66-3.34-13.34-7.51-2.2-2.5-5.36-5.34-8.37-5.7-8.88-1.06-17.89-1.06-26.85-1.24a7.37,7.37,0,0,0-4.45,1.8c-4.88,4.13-9.39,8.52-8.59,15.87.17,1.53-1,3.15-1.06,4.76C175.84,55.83,174,59.77,179,61.08Zm62-14L247.88,52l-1,1.44c-4,.69-6.19-1.06-6.79-5C240.39,48,240.73,47.53,241.07,47.06Zm-16.25-4.59h-23c-.17-3.51-.3-6.39-.46-9.81C211.06,32.66,220.12,31.85,224.82,42.47Zm-27.2-9.95a11.13,11.13,0,0,1,.65,2.09c.85,7.37.84,7.38-6.7,7.38h-9C186,33.77,189,32,197.62,32.52Zm30.64,15.13L180,45.49C185.2,42.49,221.4,44.17,228.26,47.65Z"></path>
      <path d="M6.5,61.16c1.43-6,4.45-10.31,11-10.37,7.7-.06,10.31,5.39,11.58,11.79H47.19c1.47-8,5.09-11.76,11-11.86s9.55,3.44,11.32,11.46c7.9,1.41,9.41-.4,7.83-7.88-1.52-7.21-7-8.4-12.7-10-3.18-.92-7.11-1.83-9-4.14-5.88-7.2-13.07-10.33-22.16-10A74.72,74.72,0,0,1,23,29.85c-6.4-.64-11.49,1.57-15,6.84A34,34,0,0,0,4.52,45,31.64,31.64,0,0,0,3,52.74C2.81,55.84,1,59.82,6.5,61.16ZM68.31,47l6.62,5c-5,2.26-7.17.44-7.87-3.51ZM28.7,33.2c11.92-2.32,17.87,0,23.18,9.26H28.7Zm-4-.66a7.78,7.78,0,0,1,.6,1.59c1.06,7.62.86,7.85-6.71,7.86h-9C13.13,33.72,16.06,32,24.71,32.54ZM7.35,44.05c16,.18,32.11-.94,47.84,3.61L7.26,45.48Z"></path>
      <path d="M256.21,74.62h8.28v-39h-8.28Z"></path>
      <path d="M253.38,5.51c3.64,2,4.48,5,4.39,8.75-.14,5.93,0,11.86,0,17.68h5c0-6.7.05-13.16,0-19.62C262.63,5.4,259.63,1.94,250.79,0,251.91,2.51,252.18,4.84,253.38,5.51Z"></path>
      <path d="M252.83,84.69c0-7.46-1.34-8.34-8.9-5.89V93h8.9C252.83,90.19,252.84,87.44,252.83,84.69Z"></path>
      <path d="M227.78,77.89c-2.39,0-4.26-.3-6,.1-1.14.27-2.84,1.48-2.91,2.37-.31,4.07-.14,8.17-.14,12.45h9Z"></path>
      <path d="M231.89,78.24V93h7.59V78.24Z"></path>
      <path d="M260.1,93.05c.87-1,2.38-2,2.47-3,.31-3.75.12-7.53.12-11.29l-1.2-1.33c-1.25.92-3.4,1.68-3.58,2.78a39.41,39.41,0,0,0-.25,9.83C257.75,91.08,259.25,92,260.1,93.05Z"></path>
      <path d="M345.67,80.74c-.77.84-2.14,1.63-2.21,2.52-.27,3.25-.11,6.54-.11,9.81l1.82,1.07c.87-1.28,2.23-2.46,2.49-3.85a22.55,22.55,0,0,0,0-6.91C347.55,82.43,346.37,81.61,345.67,80.74Z"></path>
      <path d="M297.21,25.6c-.85-1.35-1.48-3.13-2-3.11-5.58.24-11.16.76-16.73,1.21l0,.76Z"></path>
      <path d="M179.29,88.34a3.76,3.76,0,1,0-3.75,3.75A3.75,3.75,0,0,0,179.29,88.34Z"></path>
      <path d="M187.3,88.34a11.76,11.76,0,1,0-11.76,11.76A11.76,11.76,0,0,0,187.3,88.34Zm-19.22,0a7.46,7.46,0,1,1,7.46,7.45A7.46,7.46,0,0,1,168.08,88.34Z"></path>
      <path d="M68.14,88.34a3.76,3.76,0,1,0-3.75,3.75A3.75,3.75,0,0,0,68.14,88.34Z"></path>
      <path d="M76.15,88.34A11.76,11.76,0,1,0,64.39,100.1,11.76,11.76,0,0,0,76.15,88.34Zm-19.22,0a7.46,7.46,0,1,1,7.46,7.45A7.46,7.46,0,0,1,56.93,88.34Z"></path>
      <path d="M39,88.34a3.76,3.76,0,1,0-3.76,3.75A3.76,3.76,0,0,0,39,88.34Z"></path>
      <path d="M47,88.34A11.76,11.76,0,1,0,35.28,100.1,11.75,11.75,0,0,0,47,88.34Zm-19.21,0a7.46,7.46,0,1,1,7.45,7.45A7.46,7.46,0,0,1,27.83,88.34Z"></path>
      <path d="M20.4,61.56a2.71,2.71,0,1,0-2.71,2.71A2.7,2.7,0,0,0,20.4,61.56Z"></path>
      <path d="M61.28,61.56a2.71,2.71,0,1,0-2.71,2.71A2.7,2.7,0,0,0,61.28,61.56Z"></path>
      <path d="M107,61.56a2.71,2.71,0,1,0-2.71,2.71A2.71,2.71,0,0,0,107,61.56Z"></path>
      <path d="M147.86,61.56a2.71,2.71,0,1,0-2.71,2.71A2.7,2.7,0,0,0,147.86,61.56Z"></path>
      <path d="M193.33,61.56a2.71,2.71,0,1,0-2.71,2.71A2.7,2.7,0,0,0,193.33,61.56Z"></path>
      <path d="M233.71,61.56A2.71,2.71,0,1,0,231,64.27,2.7,2.7,0,0,0,233.71,61.56Z"></path>
      <path d="M207.21,88.34a3.76,3.76,0,1,0-3.76,3.75A3.76,3.76,0,0,0,207.21,88.34Z"></path>
      <path d="M215.21,88.34a11.76,11.76,0,1,0-11.76,11.76A11.75,11.75,0,0,0,215.21,88.34Zm-19.21,0a7.46,7.46,0,1,1,7.45,7.45A7.46,7.46,0,0,1,196,88.34Z"></path>
      <path d="M333,88.34a3.75,3.75,0,1,0-3.75,3.75A3.75,3.75,0,0,0,333,88.34Z"></path>
      <path d="M341,88.34a11.76,11.76,0,1,0-11.76,11.76A11.76,11.76,0,0,0,341,88.34Zm-19.21,0a7.45,7.45,0,1,1,7.45,7.45A7.45,7.45,0,0,1,321.79,88.34Z"></path>
      <path d="M14.43,81.7c.3,2.4.47,3.84.83,6.7,2.14-1.4,4.62-2.12,5-3.41,1.9-7.1,6.33-11.27,13.42-12.38,6.86-1.07,11.8,2.35,15.94,8.15,1.23-1.31,2.1-2.29,3-3.21,8.48-8.26,22.31-5.24,25.9,6,1.21,3.81,3,4.28,6.37,4.26q34.74-.15,69.47,0c3.42,0,5.14-.78,6.42-4.3C164,74.74,172.63,70.82,180.86,74c5.7,2.21,11.13,1.84,17,.13,3.43-1,7.42-.22,11.15,0,1.76.12,3.48,1.3,5.23,1.32,11.83.12,23.66.14,35.49,0,1.32,0,2.63-1.51,3.95-2.32-1.35-1-2.63-2.83-4-2.95q-.69-.06-1.38-.09L242.7,70l-7.15-.14-2.46,0a8.47,8.47,0,1,0-4.51-.08L223,69.59H194.28l0,0h-.83a8.49,8.49,0,1,0-5.73,0h-32l-7.86,0a8.48,8.48,0,1,0-5.41,0H106.84a8.47,8.47,0,1,0-5.12,0H68.54l-7.49,0a8.49,8.49,0,1,0-4.91,0H25l-5.41.13a8.5,8.5,0,1,0-3.35.07L12.85,70,11.1,70h0a65.41,65.41,0,0,0-8,.15c-1.15.11-3,1.63-3,2.61A64,64,0,0,0,.49,81.7ZM225.62,61.56A5.38,5.38,0,1,1,231,66.94,5.37,5.37,0,0,1,225.62,61.56Zm-40.38,0a5.38,5.38,0,1,1,5.38,5.38A5.37,5.37,0,0,1,185.24,61.56Zm-45.47,0a5.38,5.38,0,1,1,5.38,5.38A5.37,5.37,0,0,1,139.77,61.56Zm-40.87,0a5.38,5.38,0,1,1,5.38,5.38A5.37,5.37,0,0,1,98.9,61.56Zm-45.7,0a5.38,5.38,0,1,1,5.37,5.38A5.36,5.36,0,0,1,53.2,61.56Zm-40.89,0a5.38,5.38,0,1,1,5.38,5.38A5.37,5.37,0,0,1,12.31,61.56Z"></path>
      <path d="M242.7,70c2.76,0,4.89.1,5.51.12C246.39,70,244.57,70,242.7,70Z"></path>
    </g>
  </g>
</svg>
